<svg xmlns="http://www.w3.org/2000/svg" xmlns:xlink="http://www.w3.org/1999/xlink" version="1.1" x="0px" y="0px" viewBox="0 0 24 24" enable-background="new 0 0 24 24" xml:space="preserve" style="max-width:100%" height="100%"><g style="" fill="#f8b803"><path d="M23.911,12.024c-0.005-0.018-0.004-0.037-0.011-0.053c-0.02-0.049-0.05-0.093-0.087-0.13c0,0,0-0.001-0.001-0.001   l-4.629-4.609c-0.075-0.074-0.176-0.116-0.282-0.116l-3.044-0.002V5.206c0-0.856-0.696-1.553-1.553-1.553H1.624   c-0.856,0-1.554,0.697-1.554,1.553L0.069,16.737c0,0.856,0.697,1.553,1.554,1.553h1.611c0.191,1.166,1.205,2.057,2.424,2.057   s2.232-0.892,2.424-2.057h8.665c0.191,1.166,1.205,2.057,2.423,2.057c1.219,0,2.232-0.892,2.424-2.057h1.926   c0.221,0,0.399-0.179,0.4-0.399l0.012-5.766l0,0c0,0,0,0,0,0C23.931,12.089,23.92,12.057,23.911,12.024z M22.562,11.724H20.14   l0.263-0.675c0.08-0.206-0.021-0.438-0.228-0.518s-0.438,0.021-0.519,0.228l-0.376,0.965h-3.387V7.913l2.844,0.003L22.562,11.724z    M1.624,4.453h12.682c0.415,0,0.752,0.338,0.752,0.753v2.306c0,0.052,0.014,0.102,0.035,0.148v6.045H0.87l0-4.069h7.04L7.91,10.052   c-0.003,0.421,0.249,0.607,0.398,0.679C8.402,10.777,8.5,10.8,8.598,10.8c0.214,0,0.371-0.104,0.469-0.182l2.554-1.988   c0.205-0.161,0.319-0.368,0.319-0.584c0.001-0.204-0.098-0.394-0.277-0.536c-0.871-0.687-1.747-1.369-2.625-2.049   C8.698,5.2,8.208,5.294,8.012,5.65C7.951,5.762,7.917,5.9,7.914,6.062C7.91,6.198,7.91,6.333,7.91,6.469H0.87l0-1.262   C0.871,4.791,1.208,4.453,1.624,4.453z M8.71,6.64c-0.001-0.134-0.001-0.269,0-0.419c0.784,0.607,1.566,1.217,2.349,1.833   L8.71,9.882l0.001-0.646c0-0.221-0.18-0.4-0.4-0.4h-7.44V7.268h7.44c0.221,0,0.4-0.179,0.4-0.4L8.71,6.64z M5.658,19.547   c-0.913,0-1.656-0.744-1.656-1.657s0.743-1.657,1.656-1.657s1.656,0.744,1.656,1.657S6.571,19.547,5.658,19.547z M5.658,15.433   c-1.219,0-2.232,0.892-2.424,2.057H1.623c-0.415,0-0.753-0.338-0.753-0.753l0-2.232h14.222v2.985H8.082   C7.89,16.324,6.876,15.433,5.658,15.433z M19.169,19.547c-0.913,0-1.655-0.744-1.655-1.657s0.742-1.657,1.655-1.657   s1.656,0.744,1.656,1.657S20.083,19.547,19.169,19.547z M21.593,17.49c-0.191-1.166-1.205-2.057-2.424-2.057   c-1.218,0-2.231,0.892-2.423,2.057h-0.854v-4.966h7.237l-0.01,4.966H21.593z" style="" fill="#f8b803"></path><circle cx="2.628" cy="11.514" r="0.384" style="" fill="f8b803"></circle><circle cx="4.124" cy="11.514" r="0.384" style="" fill="f8b803"></circle><circle cx="5.621" cy="11.514" r="0.384" style="" fill="#f8b803"></circle><circle cx="5.661" cy="17.89" r="0.701" style="" fill="f8b803"></circle><circle cx="19.123" cy="17.89" r="0.701" style="" fill="f8b803"></circle></g></svg>