<svg width="1869" height="448" viewBox="0 0 1869 448" fill="none" xmlns="http://www.w3.org/2000/svg">
<circle cx="224" cy="224" r="224" fill="white"/>
<path d="M96.5103 153.622C92.5593 153.622 89.3613 159.459 89.3613 166.669V281.455C89.3613 288.657 92.5593 294.502 96.5103 294.502C100.461 294.502 103.659 288.657 103.659 281.455V166.669C103.659 159.459 100.456 153.622 96.5103 153.622Z" fill="#F8B803"/>
<path d="M136.084 114.28C132.133 114.28 128.935 120.116 128.935 127.327V320.785C128.935 327.987 132.133 333.832 136.084 333.832C140.034 333.832 143.232 327.987 143.232 320.785V127.327C143.232 120.116 140.034 114.28 136.084 114.28Z" fill="#F8B803"/>
<path d="M175.654 53.0212C171.703 53.0212 168.505 58.8575 168.505 66.0681V382.044C168.505 389.246 171.703 395.091 175.654 395.091C179.605 395.091 182.803 389.246 182.803 382.044V66.0681C182.803 58.8575 179.605 53.0212 175.654 53.0212Z" fill="#F8B803"/>
<path d="M215.231 147.167C211.28 147.167 208.083 153.003 208.083 160.214V287.898C208.083 295.1 211.28 300.945 215.231 300.945C219.182 300.945 222.38 295.1 222.38 287.898V160.214C222.38 153.012 219.182 147.167 215.231 147.167Z" fill="#F8B803"/>
<path d="M254.802 174.896C250.856 174.896 247.653 180.732 247.653 187.942V260.161C247.653 267.363 250.856 273.208 254.802 273.208C258.748 273.208 261.951 267.363 261.951 260.161V187.942C261.951 180.74 258.748 174.896 254.802 174.896Z" fill="#F8B803"/>
<path d="M294.379 101.382C290.433 101.382 287.23 107.218 287.23 114.429V333.676C287.23 340.878 290.433 346.723 294.379 346.723C298.325 346.723 301.528 340.878 301.528 333.676V114.429C301.528 107.227 298.325 101.382 294.379 101.382Z" fill="#F8B803"/>
<path d="M333.955 147.167C330.008 147.167 326.806 153.003 326.806 160.214V287.898C326.806 295.1 330.008 300.945 333.955 300.945C337.901 300.945 341.104 295.1 341.104 287.898V160.214C341.104 153.012 337.901 147.167 333.955 147.167Z" fill="#F8B803"/>
<path d="M373.532 171.678C369.586 171.678 366.383 177.515 366.383 184.725V263.398C366.383 270.599 369.586 276.444 373.532 276.444C377.478 276.444 380.681 270.599 380.681 263.398V184.725C380.681 177.515 377.478 171.678 373.532 171.678Z" fill="#F8B803"/>
<path d="M640.85 33.5C662.317 33.5 681.217 36.8833 697.55 43.65C714.117 50.1833 728.467 59.8667 740.6 72.7L711.55 111.55C701.517 101.05 690.667 93.2333 679 88.1C667.567 82.7333 654.5 80.05 639.8 80.05C626.967 80.05 617.75 82.15 612.15 86.35C606.55 90.55 603.75 95.6833 603.75 101.75C603.75 106.65 605.967 110.85 610.4 114.35C615.067 117.617 622.533 120.417 632.8 122.75L671.65 131.5C694.75 136.867 711.667 144.683 722.4 154.95C733.133 165.217 738.5 178.867 738.5 195.9C738.5 212.233 734.3 226.117 725.9 237.55C717.5 248.75 705.95 257.267 691.25 263.1C676.55 268.7 659.75 271.5 640.85 271.5C617.517 271.5 596.167 267.767 576.8 260.3C557.433 252.6 542.033 242.567 530.6 230.2L559.65 189.95C568.283 199.983 579.95 208.383 594.65 215.15C609.35 221.683 624.517 224.95 640.15 224.95C664.417 224.95 676.55 217.833 676.55 203.6C676.55 198.7 674.683 194.617 670.95 191.35C667.45 187.85 660.917 184.933 651.35 182.6L608.65 173.15C595.583 170.35 583.917 166.383 573.65 161.25C563.617 156.117 555.683 149.35 549.85 140.95C544.017 132.317 541.1 121.583 541.1 108.75C541.1 94.2833 545.067 81.45 553 70.25C560.933 58.8167 572.367 49.8333 587.3 43.3C602.233 36.7667 620.083 33.5 640.85 33.5ZM879.736 33.5C903.069 33.5 923.136 38.2833 939.936 47.85C956.969 57.1833 970.036 70.7167 979.136 88.45C988.236 106.183 992.786 127.533 992.786 152.5C992.786 177.467 988.236 198.817 979.136 216.55C970.036 234.283 956.969 247.933 939.936 257.5C923.136 266.833 903.069 271.5 879.736 271.5C856.169 271.5 835.869 266.833 818.836 257.5C802.036 247.933 789.086 234.283 779.986 216.55C770.886 198.817 766.336 177.467 766.336 152.5C766.336 127.533 770.886 106.183 779.986 88.45C789.086 70.7167 802.036 57.1833 818.836 47.85C835.869 38.2833 856.169 33.5 879.736 33.5ZM879.736 80.75C862.936 80.75 850.103 86.8167 841.236 98.95C832.369 110.85 827.936 128.7 827.936 152.5C827.936 176.3 832.369 194.267 841.236 206.4C850.103 218.3 862.936 224.25 879.736 224.25C896.303 224.25 909.019 218.3 917.886 206.4C926.753 194.267 931.186 176.3 931.186 152.5C931.186 128.7 926.753 110.85 917.886 98.95C909.019 86.8167 896.303 80.75 879.736 80.75ZM1236.14 37V173.85C1236.14 238.95 1201.73 271.5 1132.89 271.5C1099.06 271.5 1073.39 263.45 1055.89 247.35C1038.39 231.017 1029.64 206.517 1029.64 173.85V37H1090.19V174.9C1090.19 207.8 1104.43 224.25 1132.89 224.25C1161.59 224.25 1175.94 207.8 1175.94 174.9V37H1236.14ZM1490.93 37V268H1424.08L1352.33 143.05L1334.83 108.75H1334.48L1335.88 151.45V268H1282.68V37H1349.53L1421.28 161.95L1438.78 196.25H1439.13L1437.73 153.55V37H1490.93ZM1640.1 37C1676.27 37 1703.92 47.0333 1723.05 67.1C1742.42 87.1667 1752.1 115.633 1752.1 152.5C1752.1 189.367 1742.42 217.833 1723.05 237.9C1703.92 257.967 1676.27 268 1640.1 268H1542.1V37H1640.1ZM1634.15 222.5C1653.75 222.5 1667.99 216.667 1676.85 205C1685.95 193.1 1690.5 175.6 1690.5 152.5C1690.5 129.4 1685.95 112.017 1676.85 100.35C1667.99 88.45 1653.75 82.5 1634.15 82.5H1602.3V222.5H1634.15ZM1808.61 207.8C1819.58 207.8 1828.09 210.6 1834.16 216.2C1840.46 221.8 1843.61 229.617 1843.61 239.65C1843.61 249.45 1840.46 257.15 1834.16 262.75C1828.09 268.35 1819.58 271.15 1808.61 271.15C1797.64 271.15 1789.01 268.35 1782.71 262.75C1776.64 257.15 1773.61 249.45 1773.61 239.65C1773.61 229.617 1776.64 221.8 1782.71 216.2C1789.01 210.6 1797.64 207.8 1808.61 207.8Z" fill="white"/>
<path d="M597.36 343.6V403H586.2V372.04L586.74 354.67H586.56L570.09 403H559.92L543.54 354.67H543.36L543.99 372.04V403H532.74V343.6H550.74L561.45 376L565.23 389.41H565.41L569.28 376.09L579.9 343.6H597.36ZM629.469 403.9C626.469 403.9 623.769 403.36 621.369 402.28C618.969 401.2 617.049 399.49 615.609 397.15C614.229 394.81 613.539 391.72 613.539 387.88V358H625.869V384.91C625.869 388.39 626.589 390.82 628.029 392.2C629.469 393.52 631.539 394.18 634.239 394.18C636.819 394.18 639.099 393.25 641.079 391.39C643.119 389.47 644.139 386.41 644.139 382.21V358H656.469V403H645.489L645.039 395.17C643.539 398.11 641.469 400.3 638.829 401.74C636.189 403.18 633.069 403.9 629.469 403.9ZM690.144 403.9C685.584 403.9 681.414 403.09 677.634 401.47C673.914 399.85 670.884 397.57 668.544 394.63L675.654 387.43C677.094 389.59 679.014 391.36 681.414 392.74C683.814 394.12 686.664 394.81 689.964 394.81C692.304 394.81 694.164 394.48 695.544 393.82C696.984 393.1 697.704 391.99 697.704 390.49C697.704 389.53 697.374 388.72 696.714 388.06C696.054 387.34 694.734 386.77 692.754 386.35L684.834 384.73C679.614 383.65 675.894 382.03 673.674 379.87C671.514 377.65 670.434 374.8 670.434 371.32C670.434 368.86 671.154 366.55 672.594 364.39C674.094 362.23 676.314 360.49 679.254 359.17C682.194 357.79 685.854 357.1 690.234 357.1C699.354 357.1 705.894 359.89 709.854 365.47L702.474 372.67C701.154 370.57 699.414 368.98 697.254 367.9C695.154 366.76 692.934 366.19 690.594 366.19C685.314 366.19 682.674 367.66 682.674 370.6C682.674 371.56 683.094 372.4 683.934 373.12C684.774 373.78 686.304 374.35 688.524 374.83L697.704 376.72C702.144 377.62 705.324 379.15 707.244 381.31C709.164 383.41 710.124 385.96 710.124 388.96C710.124 393.28 708.384 396.85 704.904 399.67C701.484 402.49 696.564 403.9 690.144 403.9ZM728.866 351.52C723.766 351.52 721.216 349.33 721.216 344.95C721.216 340.51 723.766 338.29 728.866 338.29C733.966 338.29 736.516 340.51 736.516 344.95C736.516 349.33 733.966 351.52 728.866 351.52ZM734.986 358V403H722.656V358H734.986ZM771.187 357.1C777.187 357.1 781.837 358.39 785.137 360.97C788.497 363.55 790.717 366.67 791.797 370.33L780.277 374.47C779.077 369.01 776.107 366.28 771.367 366.28C767.947 366.28 765.277 367.48 763.357 369.88C761.497 372.28 760.567 375.85 760.567 380.59C760.567 385.39 761.527 388.96 763.447 391.3C765.427 393.58 768.097 394.72 771.457 394.72C776.677 394.72 779.797 392.05 780.817 386.71L791.977 390.31C790.957 394.33 788.677 397.6 785.137 400.12C781.657 402.64 777.127 403.9 771.547 403.9C766.867 403.9 762.757 402.97 759.217 401.11C755.737 399.25 753.037 396.58 751.117 393.1C749.197 389.62 748.237 385.42 748.237 380.5C748.237 375.58 749.197 371.38 751.117 367.9C753.097 364.42 755.797 361.75 759.217 359.89C762.697 358.03 766.687 357.1 771.187 357.1ZM829.907 374.29C829.907 371.71 829.157 369.7 827.657 368.26C826.217 366.82 824.297 366.1 821.897 366.1C819.677 366.1 817.727 366.67 816.047 367.81C814.367 368.95 813.137 370.84 812.357 373.48L801.827 370.24C802.847 366.28 805.067 363.1 808.487 360.7C811.967 358.3 816.617 357.1 822.437 357.1C828.317 357.1 833.057 358.51 836.657 361.33C840.317 364.09 842.147 368.23 842.147 373.75V392.02C842.147 394.3 843.227 395.44 845.387 395.44C846.407 395.44 847.367 395.29 848.267 394.99L847.547 402.64C845.987 403.42 844.037 403.81 841.697 403.81C839.117 403.81 836.867 403.27 834.947 402.19C833.087 401.11 831.827 399.49 831.167 397.33C829.727 399.49 827.657 401.14 824.957 402.28C822.317 403.36 819.587 403.9 816.767 403.9C812.207 403.9 808.577 402.88 805.877 400.84C803.237 398.74 801.917 395.71 801.917 391.75C801.917 388.39 802.997 385.66 805.157 383.56C807.317 381.4 810.407 379.93 814.427 379.15L829.907 376V374.29ZM814.247 390.58C814.247 392.08 814.787 393.22 815.867 394C817.007 394.78 818.357 395.17 819.917 395.17C821.657 395.17 823.277 394.9 824.777 394.36C826.277 393.82 827.507 392.92 828.467 391.66C829.427 390.34 829.907 388.6 829.907 386.44V383.65L820.457 385.54C818.417 385.96 816.857 386.53 815.777 387.25C814.757 387.91 814.247 389.02 814.247 390.58ZM870.787 338.29V389.14C870.787 391.24 871.147 392.71 871.867 393.55C872.587 394.39 873.787 394.81 875.467 394.81C876.487 394.81 877.327 394.75 877.987 394.63C878.647 394.51 879.487 394.27 880.507 393.91L879.427 402.01C878.407 402.61 877.117 403.06 875.557 403.36C874.057 403.72 872.557 403.9 871.057 403.9C866.677 403.9 863.467 402.85 861.427 400.75C859.447 398.59 858.457 395.17 858.457 390.49V338.29H870.787ZM931.946 343.6V403H919.526V343.6H931.946ZM948.563 403V358H959.633L960.083 366.46C961.463 363.34 963.473 361 966.113 359.44C968.813 357.88 971.903 357.1 975.383 357.1C980.063 357.1 983.933 358.48 986.993 361.24C990.053 363.94 991.583 368.02 991.583 373.48V403H979.253V376.99C979.253 373.15 978.473 370.51 976.913 369.07C975.413 367.57 973.493 366.82 971.153 366.82C969.473 366.82 967.823 367.24 966.203 368.08C964.643 368.86 963.353 370.15 962.333 371.95C961.373 373.75 960.893 376.15 960.893 379.15V403H948.563ZM1024.99 403.9C1020.43 403.9 1016.26 403.09 1012.48 401.47C1008.76 399.85 1005.73 397.57 1003.39 394.63L1010.5 387.43C1011.94 389.59 1013.86 391.36 1016.26 392.74C1018.66 394.12 1021.51 394.81 1024.81 394.81C1027.15 394.81 1029.01 394.48 1030.39 393.82C1031.83 393.1 1032.55 391.99 1032.55 390.49C1032.55 389.53 1032.22 388.72 1031.56 388.06C1030.9 387.34 1029.58 386.77 1027.6 386.35L1019.68 384.73C1014.46 383.65 1010.74 382.03 1008.52 379.87C1006.36 377.65 1005.28 374.8 1005.28 371.32C1005.28 368.86 1006 366.55 1007.44 364.39C1008.94 362.23 1011.16 360.49 1014.1 359.17C1017.04 357.79 1020.7 357.1 1025.08 357.1C1034.2 357.1 1040.74 359.89 1044.7 365.47L1037.32 372.67C1036 370.57 1034.26 368.98 1032.1 367.9C1030 366.76 1027.78 366.19 1025.44 366.19C1020.16 366.19 1017.52 367.66 1017.52 370.6C1017.52 371.56 1017.94 372.4 1018.78 373.12C1019.62 373.78 1021.15 374.35 1023.37 374.83L1032.55 376.72C1036.99 377.62 1040.17 379.15 1042.09 381.31C1044.01 383.41 1044.97 385.96 1044.97 388.96C1044.97 393.28 1043.23 396.85 1039.75 399.67C1036.33 402.49 1031.41 403.9 1024.99 403.9ZM1087.83 358V367.18H1073.43V388.33C1073.43 390.49 1073.97 392.08 1075.05 393.1C1076.19 394.06 1077.72 394.54 1079.64 394.54C1081.2 394.54 1082.52 394.33 1083.6 393.91C1084.74 393.43 1085.76 392.8 1086.66 392.02L1088.64 400.21C1087.14 401.35 1085.31 402.25 1083.15 402.91C1081.05 403.57 1078.8 403.9 1076.4 403.9C1071.9 403.9 1068.21 402.88 1065.33 400.84C1062.51 398.74 1061.1 395.23 1061.1 390.31V367.18H1052.82V358H1061.1V347.65L1073.43 344.23V358H1087.83ZM1098.87 403V358H1109.58L1110.39 366.82C1111.53 363.76 1113.24 361.39 1115.52 359.71C1117.86 357.97 1120.8 357.1 1124.34 357.1C1126.44 357.1 1128.06 357.43 1129.2 358.09L1127.76 368.44C1127.16 368.26 1126.41 368.11 1125.51 367.99C1124.67 367.81 1123.56 367.72 1122.18 367.72C1120.32 367.72 1118.55 368.17 1116.87 369.07C1115.25 369.91 1113.9 371.23 1112.82 373.03C1111.74 374.77 1111.2 376.99 1111.2 379.69V403H1098.87ZM1155.2 403.9C1152.2 403.9 1149.5 403.36 1147.1 402.28C1144.7 401.2 1142.78 399.49 1141.34 397.15C1139.96 394.81 1139.27 391.72 1139.27 387.88V358H1151.6V384.91C1151.6 388.39 1152.32 390.82 1153.76 392.2C1155.2 393.52 1157.27 394.18 1159.97 394.18C1162.55 394.18 1164.83 393.25 1166.81 391.39C1168.85 389.47 1169.87 386.41 1169.87 382.21V358H1182.2V403H1171.22L1170.77 395.17C1169.27 398.11 1167.2 400.3 1164.56 401.74C1161.92 403.18 1158.8 403.9 1155.2 403.9ZM1197.87 403V358H1208.94L1209.39 366.1C1210.89 363.1 1212.93 360.85 1215.51 359.35C1218.15 357.85 1221.06 357.1 1224.24 357.1C1227.48 357.1 1230.39 357.85 1232.97 359.35C1235.61 360.79 1237.59 363.01 1238.91 366.01C1240.29 363.01 1242.42 360.79 1245.3 359.35C1248.18 357.85 1251.15 357.1 1254.21 357.1C1257.15 357.1 1259.82 357.7 1262.22 358.9C1264.68 360.1 1266.63 361.9 1268.07 364.3C1269.51 366.7 1270.23 369.76 1270.23 373.48V403H1257.9V375.91C1257.9 372.61 1257.15 370.27 1255.65 368.89C1254.21 367.51 1252.38 366.82 1250.16 366.82C1247.4 366.82 1245.06 367.84 1243.14 369.88C1241.22 371.86 1240.26 374.83 1240.26 378.79V403H1227.93V375.91C1227.93 372.61 1227.18 370.27 1225.68 368.89C1224.24 367.51 1222.38 366.82 1220.1 366.82C1218.54 366.82 1216.98 367.24 1215.42 368.08C1213.92 368.92 1212.66 370.24 1211.64 372.04C1210.68 373.84 1210.2 376.21 1210.2 379.15V403H1197.87ZM1306.53 403.9C1299.45 403.9 1293.78 401.86 1289.52 397.78C1285.26 393.64 1283.13 387.88 1283.13 380.5C1283.13 375.58 1284.09 371.38 1286.01 367.9C1287.93 364.42 1290.6 361.75 1294.02 359.89C1297.5 358.03 1301.46 357.1 1305.9 357.1C1310.46 357.1 1314.33 358.03 1317.51 359.89C1320.69 361.69 1323.12 364.18 1324.8 367.36C1326.48 370.48 1327.32 374.05 1327.32 378.07C1327.32 379.27 1327.29 380.41 1327.23 381.49C1327.17 382.57 1327.08 383.53 1326.96 384.37H1295.19C1295.67 387.85 1296.87 390.46 1298.79 392.2C1300.77 393.88 1303.32 394.72 1306.44 394.72C1309.08 394.72 1311.21 394.21 1312.83 393.19C1314.45 392.17 1315.71 390.76 1316.61 388.96L1326.42 392.74C1324.98 396.28 1322.46 399.04 1318.86 401.02C1315.26 402.94 1311.15 403.9 1306.53 403.9ZM1305.81 366.19C1299.99 366.19 1296.48 369.4 1295.28 375.82H1315.53C1315.17 372.7 1314.15 370.33 1312.47 368.71C1310.85 367.03 1308.63 366.19 1305.81 366.19ZM1340.47 403V358H1351.54L1351.99 366.46C1353.37 363.34 1355.38 361 1358.02 359.44C1360.72 357.88 1363.81 357.1 1367.29 357.1C1371.97 357.1 1375.84 358.48 1378.9 361.24C1381.96 363.94 1383.49 368.02 1383.49 373.48V403H1371.16V376.99C1371.16 373.15 1370.38 370.51 1368.82 369.07C1367.32 367.57 1365.4 366.82 1363.06 366.82C1361.38 366.82 1359.73 367.24 1358.11 368.08C1356.55 368.86 1355.26 370.15 1354.24 371.95C1353.28 373.75 1352.8 376.15 1352.8 379.15V403H1340.47ZM1428.87 358V367.18H1414.47V388.33C1414.47 390.49 1415.01 392.08 1416.09 393.1C1417.23 394.06 1418.76 394.54 1420.68 394.54C1422.24 394.54 1423.56 394.33 1424.64 393.91C1425.78 393.43 1426.8 392.8 1427.7 392.02L1429.68 400.21C1428.18 401.35 1426.35 402.25 1424.19 402.91C1422.09 403.57 1419.84 403.9 1417.44 403.9C1412.94 403.9 1409.25 402.88 1406.37 400.84C1403.55 398.74 1402.14 395.23 1402.14 390.31V367.18H1393.86V358H1402.14V347.65L1414.47 344.23V358H1428.87ZM1457.91 403.9C1453.35 403.9 1449.18 403.09 1445.4 401.47C1441.68 399.85 1438.65 397.57 1436.31 394.63L1443.42 387.43C1444.86 389.59 1446.78 391.36 1449.18 392.74C1451.58 394.12 1454.43 394.81 1457.73 394.81C1460.07 394.81 1461.93 394.48 1463.31 393.82C1464.75 393.1 1465.47 391.99 1465.47 390.49C1465.47 389.53 1465.14 388.72 1464.48 388.06C1463.82 387.34 1462.5 386.77 1460.52 386.35L1452.6 384.73C1447.38 383.65 1443.66 382.03 1441.44 379.87C1439.28 377.65 1438.2 374.8 1438.2 371.32C1438.2 368.86 1438.92 366.55 1440.36 364.39C1441.86 362.23 1444.08 360.49 1447.02 359.17C1449.96 357.79 1453.62 357.1 1458 357.1C1467.12 357.1 1473.66 359.89 1477.62 365.47L1470.24 372.67C1468.92 370.57 1467.18 368.98 1465.02 367.9C1462.92 366.76 1460.7 366.19 1458.36 366.19C1453.08 366.19 1450.44 367.66 1450.44 370.6C1450.44 371.56 1450.86 372.4 1451.7 373.12C1452.54 373.78 1454.07 374.35 1456.29 374.83L1465.47 376.72C1469.91 377.62 1473.09 379.15 1475.01 381.31C1476.93 383.41 1477.89 385.96 1477.89 388.96C1477.89 393.28 1476.15 396.85 1472.67 399.67C1469.25 402.49 1464.33 403.9 1457.91 403.9ZM1543.59 342.7C1548.99 342.7 1553.73 343.63 1557.81 345.49C1561.89 347.35 1565.37 350.11 1568.25 353.77L1561.32 361.78C1558.86 358.66 1556.16 356.38 1553.22 354.94C1550.34 353.44 1546.98 352.69 1543.14 352.69C1539.3 352.69 1536.51 353.41 1534.77 354.85C1533.03 356.23 1532.16 357.91 1532.16 359.89C1532.16 361.51 1532.76 362.89 1533.96 364.03C1535.22 365.11 1537.41 366.01 1540.53 366.73L1551.6 369.25C1557.42 370.57 1561.62 372.55 1564.2 375.19C1566.78 377.77 1568.07 381.13 1568.07 385.27C1568.07 389.17 1567.05 392.53 1565.01 395.35C1562.97 398.11 1560.12 400.24 1556.46 401.74C1552.8 403.18 1548.6 403.9 1543.86 403.9C1537.68 403.9 1532.25 402.82 1527.57 400.66C1522.89 398.5 1519.2 395.71 1516.5 392.29L1523.52 383.92C1525.56 386.8 1528.35 389.2 1531.89 391.12C1535.49 392.98 1539.48 393.91 1543.86 393.91C1547.52 393.91 1550.34 393.31 1552.32 392.11C1554.3 390.85 1555.29 389.08 1555.29 386.8C1555.29 385.3 1554.75 383.98 1553.67 382.84C1552.65 381.7 1550.73 380.83 1547.91 380.23L1535.85 377.53C1530.57 376.39 1526.49 374.53 1523.61 371.95C1520.73 369.37 1519.29 365.86 1519.29 361.42C1519.29 357.88 1520.25 354.7 1522.17 351.88C1524.09 349.06 1526.85 346.84 1530.45 345.22C1534.11 343.54 1538.49 342.7 1543.59 342.7ZM1611.59 358V367.18H1597.19V388.33C1597.19 390.49 1597.73 392.08 1598.81 393.1C1599.95 394.06 1601.48 394.54 1603.4 394.54C1604.96 394.54 1606.28 394.33 1607.36 393.91C1608.5 393.43 1609.52 392.8 1610.42 392.02L1612.4 400.21C1610.9 401.35 1609.07 402.25 1606.91 402.91C1604.81 403.57 1602.56 403.9 1600.16 403.9C1595.66 403.9 1591.97 402.88 1589.09 400.84C1586.27 398.74 1584.86 395.23 1584.86 390.31V367.18H1576.58V358H1584.86V347.65L1597.19 344.23V358H1611.59ZM1643.15 357.1C1647.65 357.1 1651.64 358.03 1655.12 359.89C1658.6 361.75 1661.3 364.42 1663.22 367.9C1665.2 371.38 1666.19 375.58 1666.19 380.5C1666.19 385.42 1665.2 389.62 1663.22 393.1C1661.3 396.58 1658.6 399.25 1655.12 401.11C1651.64 402.97 1647.65 403.9 1643.15 403.9C1638.59 403.9 1634.57 402.97 1631.09 401.11C1627.67 399.25 1624.97 396.58 1622.99 393.1C1621.07 389.62 1620.11 385.42 1620.11 380.5C1620.11 375.58 1621.07 371.38 1622.99 367.9C1624.97 364.42 1627.67 361.75 1631.09 359.89C1634.57 358.03 1638.59 357.1 1643.15 357.1ZM1643.15 366.28C1639.79 366.28 1637.15 367.48 1635.23 369.88C1633.37 372.22 1632.44 375.76 1632.44 380.5C1632.44 385.24 1633.37 388.81 1635.23 391.21C1637.15 393.55 1639.79 394.72 1643.15 394.72C1646.45 394.72 1649.03 393.55 1650.89 391.21C1652.81 388.81 1653.77 385.24 1653.77 380.5C1653.77 375.76 1652.81 372.22 1650.89 369.88C1649.03 367.48 1646.45 366.28 1643.15 366.28ZM1679.2 403V358H1689.91L1690.72 366.82C1691.86 363.76 1693.57 361.39 1695.85 359.71C1698.19 357.97 1701.13 357.1 1704.67 357.1C1706.77 357.1 1708.39 357.43 1709.53 358.09L1708.09 368.44C1707.49 368.26 1706.74 368.11 1705.84 367.99C1705 367.81 1703.89 367.72 1702.51 367.72C1700.65 367.72 1698.88 368.17 1697.2 369.07C1695.58 369.91 1694.23 371.23 1693.15 373.03C1692.07 374.77 1691.53 376.99 1691.53 379.69V403H1679.2ZM1739.87 403.9C1732.79 403.9 1727.12 401.86 1722.86 397.78C1718.6 393.64 1716.47 387.88 1716.47 380.5C1716.47 375.58 1717.43 371.38 1719.35 367.9C1721.27 364.42 1723.94 361.75 1727.36 359.89C1730.84 358.03 1734.8 357.1 1739.24 357.1C1743.8 357.1 1747.67 358.03 1750.85 359.89C1754.03 361.69 1756.46 364.18 1758.14 367.36C1759.82 370.48 1760.66 374.05 1760.66 378.07C1760.66 379.27 1760.63 380.41 1760.57 381.49C1760.51 382.57 1760.42 383.53 1760.3 384.37H1728.53C1729.01 387.85 1730.21 390.46 1732.13 392.2C1734.11 393.88 1736.66 394.72 1739.78 394.72C1742.42 394.72 1744.55 394.21 1746.17 393.19C1747.79 392.17 1749.05 390.76 1749.95 388.96L1759.76 392.74C1758.32 396.28 1755.8 399.04 1752.2 401.02C1748.6 402.94 1744.49 403.9 1739.87 403.9ZM1739.15 366.19C1733.33 366.19 1729.82 369.4 1728.62 375.82H1748.87C1748.51 372.7 1747.49 370.33 1745.81 368.71C1744.19 367.03 1741.97 366.19 1739.15 366.19Z" fill="white" fill-opacity="0.8"/>
</svg>
