<svg xmlns="http://www.w3.org/2000/svg" xmlns:xlink="http://www.w3.org/1999/xlink" version="1.1" x="0px" y="0px" viewBox="0 0 100 100" enable-background="new 0 0 100 100" xml:space="preserve" style="max-width:100%" height="100%"><path d="M50,20.993c-11.572,0-20.986,9.416-20.986,20.988c0,11.573,9.416,20.986,20.986,20.986c11.572,0,20.988-9.414,20.988-20.986  S61.572,20.993,50,20.993z M50,59.967c-9.918,0-17.988-8.067-17.986-17.986c0-9.918,8.068-17.988,17.986-17.988  s17.988,8.069,17.988,17.988C67.988,51.898,59.918,59.968,50,59.967z M82.615,14.605l-65.232,0.001  c-3.941,0-7.168,3.216-7.168,7.169v40.411c0,3.954,3.227,7.169,7.18,7.169h14.668v-3H17.395c-2.311,0-4.18-1.87-4.18-4.169V21.775  c0-2.299,1.871-4.17,4.168-4.17h65.232c2.301,0,4.17,1.871,4.17,4.17v40.411c0,2.299-1.871,4.168-4.17,4.169H67.947v3h14.668  c3.953,0,7.17-3.216,7.17-7.169V21.775C89.785,17.822,86.568,14.605,82.615,14.605z M50.359,33.853c0.889,0,1.596,0.317,2.121,0.952  c0.527,0.635,0.793,1.592,0.793,2.873h4.625c0-2.081-0.531-3.773-1.604-5.081c-1.064-1.313-2.543-2.095-4.432-2.361v-3.474h-2.564  v3.425c-1.908,0.191-3.438,0.865-4.592,2.016c-1.152,1.153-1.729,2.637-1.729,4.438c0,1.046,0.168,1.945,0.504,2.705  c0.336,0.758,0.805,1.417,1.404,1.977c0.604,0.563,1.316,1.063,2.17,1.488c0.846,0.434,1.848,0.866,3.012,1.305  c1.162,0.438,1.982,0.915,2.473,1.438c0.482,0.519,0.729,1.214,0.729,2.089c0,0.843-0.271,1.512-0.813,2.009  c-0.545,0.496-1.287,0.744-2.227,0.744c-1.131,0.001-1.998-0.339-2.605-1.021c-0.604-0.676-0.9-1.646-0.9-2.921l-4.627,0.001  c0,2.188,0.602,3.939,1.803,5.259c1.201,1.316,2.895,2.1,5.082,2.328l0.002,3.169l2.543-0.001v-3.185  c1.982-0.203,3.541-0.871,4.672-2.002s1.697-2.604,1.697-4.418c0.002-0.97-0.148-1.82-0.449-2.555  c-0.297-0.729-0.729-1.386-1.293-1.949c-0.566-0.57-1.26-1.083-2.084-1.536c-0.818-0.454-1.867-0.938-3.145-1.448  c-1.273-0.512-2.146-1.014-2.615-1.504c-0.471-0.491-0.703-1.145-0.703-1.952c0-0.875,0.238-1.562,0.721-2.057  C48.809,34.1,49.484,33.853,50.359,33.853z M26.328,62.039v-3h-8.156l-0.002,3H26.328z M26.33,21.922h-8.16v3h8.16V21.922z   M73.672,62.039h8.158l-0.002-3h-8.156V62.039z M81.83,21.923h-8.16l0.002,3h8.158V21.923L81.83,21.923z M39.178,78.797h3V66.354h-3  V78.797z M57.822,78.797h3V66.354h-3V78.797z M48.5,85.395h3V66.355h-3V85.395z" style="" fill="#f8b803"></path></svg>