<svg xmlns="http://www.w3.org/2000/svg" viewBox="0 0 64 64" x="0px" y="0px" style="max-width:100%" height="100%"><title style="" fill="#f8b803">reexport-export-refund-send-back-shipping</title><g data-name="Layer 1" style="" fill="#f8b803"><path d="M61,28a1,1,0,0,0-1-1H47V7a1,1,0,0,0-1-1H18a1,1,0,0,0-1,1V27H4a1,1,0,0,0-1,1V49a1,1,0,0,0,1,1H37a13,13,0,1,0,24-9.992ZM36,8v4H28V8ZM19,8h7v5a1,1,0,0,0,1,1H37a1,1,0,0,0,1-1V8h7V27H19ZM18,29h4v4H14V29ZM5,29h7v5a1,1,0,0,0,1,1H23a1,1,0,0,0,1-1V29h7V48H5ZM33,48V29H59v7.7A12.978,12.978,0,0,0,36.363,48Zm16,8A11,11,0,1,1,60,45,11.013,11.013,0,0,1,49,56Z" style="" fill="#f8b803"></path><rect x="11" y="44" width="2" height="2" style="" fill="#f8b803"></rect><rect x="15" y="44" width="2" height="2" style="" fill="#f8b803"></rect><rect x="21" y="23" width="2" height="2" style="" fill="#f8b803"></rect><rect x="25" y="23" width="2" height="2" style="" fill="#f8b803"></rect><rect x="29" y="23" width="2" height="2" style="" fill="#f8b803"></rect><path d="M51,38v2a4.985,4.985,0,0,1,2.237,9.447l.595-.892-1.664-1.11-2,3a1,1,0,0,0,.277,1.387l3,2,1.11-1.664-.992-.661A7,7,0,0,0,51,38Z" style="" fill="#f8b803"></path><path d="M44.555,36.168l-1.11,1.664.992.661A7,7,0,0,0,47,52V50a4.985,4.985,0,0,1-2.237-9.447l-.595.892,1.664,1.11,2-3a1,1,0,0,0-.277-1.387Z" style="" fill="#f8b803"></path><rect x="7" y="44" width="2" height="2" style="" fill="#f8b803"></rect></g></svg>